<?xml version="1.0" encoding="utf-8"?>
<!-- Generator: Adobe Illustrator 15.1.0, SVG Export Plug-In . SVG Version: 6.00 Build 0)  -->
<!DOCTYPE svg PUBLIC "-//W3C//DTD SVG 1.1//EN" "http://www.w3.org/Graphics/SVG/1.1/DTD/svg11.dtd">
<svg version="1.1" id="Layer_1" xmlns:serif="http://www.serif.com/"
	 xmlns="http://www.w3.org/2000/svg" xmlns:xlink="http://www.w3.org/1999/xlink" x="0px" y="0px" width="240px" height="55px"
	 viewBox="0 0 240 55" enable-background="new 0 0 240 55" xml:space="preserve">
<g>
	<path d="M87.544,17.546c0,3.259-2.022,5.899-7.612,5.899h-9.945V3.443h10.086c4.636,0,6.91,2.472,6.91,5.336
		c0,1.742-0.729,3.484-2.443,4.326C86.354,13.828,87.548,15.594,87.544,17.546 M75.268,7.742v3.793h4.299
		c1.031,0.047,1.918-0.764,1.966-1.793c0.002-0.049,0.002-0.098,0.001-0.145c0-1.125-0.871-1.854-1.967-1.854L75.268,7.742
		L75.268,7.742z M82.094,17.266c0-1.096-0.758-1.826-2.105-1.826h-4.721v3.707h4.691C81.363,19.146,82.094,18.529,82.094,17.266"/>
	<path d="M108.584,23.445l-0.449-13.315c-0.31,1.181-0.646,2.388-1.039,3.597l-3.146,9.719h-5.112l-3.146-9.719
		c-0.395-1.181-0.702-2.36-1.012-3.541l-0.449,13.26h-5.086L89.96,3.443h7.304l4.131,13.851l4.129-13.851h7.305l0.814,20.002
		H108.584z"/>
	<path d="M144.006,3.443c-1.629,6.771-3.371,13.176-5.449,20.002h-6.434l-2.753-12.557l-2.781,12.557h-6.434
		c-2.078-6.826-3.82-13.231-5.478-20.002h5.701c0.955,4.271,2.051,8.85,3.175,13.289l2.837-13.289h5.929l2.838,13.289
		c1.123-4.438,2.219-9.019,3.174-13.289H144.006z"/>
	<path d="M88.607,51.554l-0.448-13.313c-0.31,1.18-0.646,2.388-1.039,3.595l-3.146,9.719h-5.113l-3.146-9.719
		c-0.394-1.179-0.702-2.358-1.011-3.538l-0.45,13.257h-5.084l0.813-19.998h7.305l4.129,13.848l4.129-13.848h7.303l0.814,19.998
		L88.607,51.554L88.607,51.554z"/>
	<path d="M95.125,41.555c0-6.376,5.337-10.447,11.096-10.447c5.758,0,11.096,4.071,11.096,10.447s-5.338,10.448-11.096,10.448
		C100.462,52.003,95.125,47.931,95.125,41.555 M111.866,41.555c-0.013-3.093-2.56-5.631-5.652-5.631
		c-3.101,0-5.651,2.552-5.651,5.652c0,3.1,2.551,5.651,5.651,5.651s5.652-2.552,5.652-5.651c0-0.002,0-0.004,0-0.006V41.555"/>
	<path d="M134.309,36.077h-5.813v15.477h-5.337V36.077h-5.785v-4.521h16.937L134.309,36.077L134.309,36.077z"/>
	<path d="M134.365,41.555c0-6.376,5.337-10.447,11.095-10.447s11.095,4.071,11.095,10.447s-5.337,10.448-11.095,10.448
		S134.365,47.931,134.365,41.555 M151.105,41.555c-0.013-3.093-2.561-5.631-5.652-5.631c-3.101,0-5.651,2.552-5.651,5.652
		c0,3.1,2.552,5.651,5.651,5.651c3.102,0,5.652-2.552,5.652-5.651c0-0.002,0-0.004,0-0.006V41.555"/>
	<path d="M175.88,51.441v0.111h-5.729c-0.383-1.107-0.823-2.194-1.32-3.258c-0.481-0.994-1.035-1.951-1.657-2.865h-3.343v6.123
		h-5.337V31.555h8.764c5.646,0,7.753,3.343,7.753,6.572c0.06,2.238-1.091,4.344-3.006,5.505c0.828,1.195,1.562,2.454,2.191,3.766
		C174.828,48.715,175.391,50.064,175.88,51.441 M163.83,41.049h3.398c1.433,0,2.528-0.927,2.528-2.556
		c0-1.602-1.097-2.556-2.528-2.556h-3.398V41.049z"/>
	<path d="M195.29,51.441v0.111h-5.73c-0.382-1.107-0.821-2.194-1.319-3.258c-0.481-0.994-1.035-1.951-1.657-2.865h-3.342v6.123
		h-5.337V31.555h8.764c5.646,0,7.752,3.343,7.752,6.572c0.059,2.238-1.091,4.344-3.006,5.505c0.828,1.195,1.561,2.454,2.191,3.766
		C194.237,48.715,194.8,50.064,195.29,51.441 M183.24,41.049h3.397c1.434,0,2.528-0.927,2.528-2.556
		c0-1.602-1.096-2.556-2.528-2.556h-3.397V41.049z"/>
	<path d="M210.514,47.679h-7.472c-0.337,1.292-0.674,2.583-0.982,3.875h-5.364c1.77-7.303,3.819-13.763,6.487-19.998h7.247
		c2.668,6.235,4.72,12.695,6.46,19.998h-5.393C211.188,50.262,210.851,48.971,210.514,47.679 M209.222,43.043
		c-0.787-2.78-1.629-5.364-2.443-7.443c-0.843,2.079-1.657,4.663-2.472,7.443H209.222z"/>
	<path d="M237.507,41.555c0,5.646-4.326,9.999-11.348,9.999h-7.612V31.556h7.612C233.181,31.556,237.507,35.909,237.507,41.555
		 M232.058,41.555c0-3.623-2.809-5.393-5.897-5.393h-2.275v10.785h2.275C229.249,46.947,232.058,45.178,232.058,41.555"/>
	<path d="M27.492,2.5c-13.715,0-24.999,11.285-24.999,25s11.284,25,25,25c13.714,0,25-11.286,25-25S41.207,2.5,27.492,2.5
		L27.492,2.5 M50.867,27.5c0,12.822-10.553,23.374-23.375,23.374S4.118,40.322,4.118,27.5c0-12.823,10.552-23.375,23.374-23.375
		S50.867,14.677,50.867,27.5"/>
	<path d="M27.492,12.675v0.813c7.685,0.009,14.004,6.328,14.013,14.013h0.813C42.316,19.367,35.625,12.675,27.492,12.675
		 M27.492,41.513C19.809,41.504,13.488,35.184,13.48,27.5h-0.813l0,0c0,8.133,6.692,14.825,14.825,14.825l0,0"/>
	<path d="M39.607,16.895c0.341,0.364,0.83,0.953,1.104,1.31l5.063-3.214c-0.254-0.331-0.655-0.834-0.957-1.188l-3.205,2.119
		l-0.219,0.189l0.164-0.239l1.414-2.826l-1-1l-2.826,1.416l-0.238,0.163l0.189-0.219l2.12-3.205
		c-0.372-0.317-0.729-0.608-1.188-0.961l-3.215,5.059c0.408,0.313,0.944,0.773,1.287,1.086l3.024-1.57l0.192-0.142l-0.143,0.193
		L39.607,16.895z"/>
	<path d="M28.122,10.482l1.384-3.098l0.088-0.273l-0.025,0.287l0.146,4.14c0.485,0.046,0.986,0.112,1.48,0.194L30.971,5.6
		c-0.691-0.076-1.38-0.131-2.068-0.16l-1.361,3.383l-0.048,0.251l-0.048-0.251l-1.362-3.383c-0.688,0.029-1.376,0.084-2.067,0.16
		l-0.225,6.133c0.494-0.082,0.995-0.148,1.48-0.194l0.146-4.14l-0.024-0.287l0.088,0.273l1.383,3.098H28.122z"/>
	<path d="M16.934,15.37c0.799-0.843,1.254-1.815,0.453-2.745c-0.451-0.486-1.166-0.634-1.771-0.365l-0.061,0.024l0.02-0.054
		c0.154-0.563-0.045-1.168-0.506-1.531c-0.315-0.249-0.719-0.361-1.118-0.313c-0.75,0.076-1.328,0.59-2.902,2.344
		c-0.474,0.529-1.165,1.364-1.58,1.906l4.319,4.098C15.223,17.148,15.807,16.559,16.934,15.37 M11.298,14.368
		c0.688-0.849,1.429-1.654,2.214-2.412c0.127-0.13,0.28-0.229,0.451-0.289c0.039-0.009,0.079-0.013,0.118-0.013
		c0.25,0,0.468,0.174,0.522,0.416l0.002,0.012c0.025,0.302-0.094,0.6-0.321,0.799c-0.46,0.52-2.146,2.284-2.146,2.284L11.298,14.368
		z M12.988,15.973c0,0,1.644-1.736,2.18-2.293c0.141-0.168,0.309-0.313,0.496-0.427c0.182-0.104,0.406-0.101,0.582,0.013
		c0.179,0.115,0.268,0.332,0.221,0.541c-0.084,0.254-0.23,0.482-0.426,0.666c-0.227,0.242-2.175,2.328-2.178,2.331L12.988,15.973z"
		/>
	<path d="M27.492,12.675V27.5H12.667c0-0.002,0-0.005,0-0.008c0-8.125,6.685-14.813,14.812-14.817H27.492"/>
	<path d="M42.318,27.5c0,0.003,0,0.005,0,0.007c0,8.126-6.686,14.814-14.812,14.818h-0.016V27.5H42.318z"/>
</g>
</svg>
