<?xml version="1.0" encoding="utf-8"?>
<!-- Generator: Adobe Illustrator 15.1.0, SVG Export Plug-In . SVG Version: 6.00 Build 0)  -->
<!DOCTYPE svg PUBLIC "-//W3C//DTD SVG 1.1//EN" "http://www.w3.org/Graphics/SVG/1.1/DTD/svg11.dtd">
<svg version="1.1"
	 id="svg2" xmlns:dc="http://purl.org/dc/elements/1.1/" xmlns:rdf="http://www.w3.org/1999/02/22-rdf-syntax-ns#" xmlns:cc="http://creativecommons.org/ns#" xmlns:svg="http://www.w3.org/2000/svg"
	 xmlns="http://www.w3.org/2000/svg" xmlns:xlink="http://www.w3.org/1999/xlink" x="0px" y="0px" width="325px" height="55px"
	 viewBox="0 0 325 55" enable-background="new 0 0 325 55" xml:space="preserve">
<g>
	<path d="M304.759,4.401h17.276l-9.678,46.685h-17.273L304.759,4.401L304.759,4.401z M72.229,4.401h20.387
		c3.801,0,7.601,0.354,11.401,1.769c8.292,2.83,10.021,9.902,9.328,18.037c-1.036,6.012-2.765,12.025-6.563,16.623
		c-5.528,7.779-14.856,10.256-24.187,10.256H62.554L72.229,4.401L72.229,4.401z M87.777,15.364l-5.182,25.109
		c9.674,0,9.674-3.183,12.093-13.792C96.414,19.256,95.724,15.364,87.777,15.364z M121.984,4.401h18.312l-5.874,28.294
		c-0.346,1.77-1.729,7.779,2.765,7.073c2.767-0.353,3.802-3.892,4.492-7.073l5.874-28.294h17.966l-5.528,26.524
		c-1.727,9.197-4.146,13.088-8.638,16.625c-4.491,3.535-9.329,4.949-16.931,4.949c-14.166,0-21.421-4.598-17.967-21.574
		L121.984,4.401z M194.195,22.084c1.381-6.013-3.455-9.194-7.947-2.828c-2.073,3.183-7.602,21.573,0,21.219
		c3.111-0.354,3.801-2.477,4.838-6.366h17.273c-3.8,12.024-11.746,18.392-24.875,18.392c-6.564,0-10.713-1.414-14.166-4.597
		c-5.184-4.597-5.527-13.438-4.492-19.805c3.455-16.269,15.203-25.819,30.061-24.757c12.783,0.707,17.277,6.72,15.893,18.744
		h-16.584V22.084L194.195,22.084z M228.4,4.401h23.495l4.491,46.685h-18.312l-0.691-7.072h-12.786l-2.763,7.072h-17.968L228.4,4.401
		z M229.437,32.34h7.947V14.657L229.437,32.34L229.437,32.34z M260.531,4.401h40.771l-2.764,12.379h-11.748l-6.91,34.306H262.26
		l6.91-34.306h-11.402L260.531,4.401z"/>
	<path id="path16" d="M31.977,14.287h1.153l0.006-2.572h-0.014L31.977,14.287z M44.412,17.043h-2.698l1.447-6.815h2.699
		L44.412,17.043z M39.523,17.043h-2.701l1.063-4.984h-1.682l0.389-1.831h6.062l-0.394,1.831h-1.676L39.523,17.043z M33.205,17.043
		l-0.03-1.097h-1.957l-0.504,1.097h-2.588l3.628-6.815h3.506l0.743,6.815H33.205L33.205,17.043z M25.029,17.225
		c-2.389,0-3.184-1.457-2.728-3.619c0.388-2.124,1.957-3.561,4.263-3.561c1.72,0,3.023,0.703,2.609,2.703h-2.476
		c0.128-0.773-0.122-0.925-0.455-0.925c-0.698,0-0.913,0.714-1.151,1.812c-0.215,1.037-0.329,1.813,0.352,1.813
		c0.353,0,0.63-0.205,0.823-0.922h2.53C28.397,16.4,26.719,17.225,25.029,17.225 M17.626,17.225c-2.06,0-3.063-0.824-2.714-2.465
		l0.962-4.532h2.703l-0.941,4.417c-0.114,0.538,0.097,0.747,0.38,0.747c0.282,0,0.582-0.209,0.696-0.747l0.939-4.417h2.7
		l-0.96,4.532C21.041,16.4,19.686,17.225,17.626,17.225 M14.467,13.709c-0.441,2.059-2.05,3.334-4.148,3.334H6.961l1.446-6.815
		h3.202C14.335,10.228,14.895,11.687,14.467,13.709 M46.352,6.894C39.78,3.69,32.805,2.5,26.41,2.5
		c-6.396,0-13.367,1.189-19.938,4.394c-2.33,1.137-3.507,3.297-3.507,6.431c0,0.668,0.056,1.377,0.16,2.126l0.055,0.379
		c0.207,1.562,0.724,5.423,2.241,10.033c1.74-2.237,8.678-4.144,20.988-4.791c11.606-0.61,19.897-0.571,22.432-0.54
		c0.459-2.135,0.684-3.804,0.806-4.702l0.052-0.379C50.303,11.148,49.176,8.271,46.352,6.894 M10.985,11.773h-0.261L9.93,15.494
		h0.267c0.43,0,0.721-0.156,0.951-0.43c0.239-0.284,0.398-0.768,0.536-1.43c0.142-0.662,0.188-1.146,0.069-1.424
		C11.639,11.937,11.422,11.773,10.985,11.773 M35.525,23.969c-13.39,2.093-19.867,5.634-23.024,8.967
		c-2.42,2.558-1.575,4.521-0.929,5.65c2.073,3.244,4.359,6.022,7.328,8.987c0.949,0.949,3.963,3.763,5.264,4.414
		c1.074,0.536,2.197,0.511,2.246,0.511c0.054,0,1.175,0.025,2.247-0.511c1.303-0.651,4.316-3.465,5.268-4.414
		c4.931-4.928,7.989-9.332,11.295-16.245c1.45-3.043,2.432-6.023,3.096-8.58l0.01-0.041C45.4,22.768,41.22,23.076,35.525,23.969"/>
</g>
</svg>
