<?xml version="1.0" encoding="utf-8"?>
<!-- Generator: Adobe Illustrator 15.1.0, SVG Export Plug-In . SVG Version: 6.00 Build 0)  -->
<!DOCTYPE svg PUBLIC "-//W3C//DTD SVG 1.1//EN" "http://www.w3.org/Graphics/SVG/1.1/DTD/svg11.dtd">
<svg version="1.1" id="Layer_1" xmlns="http://www.w3.org/2000/svg" xmlns:xlink="http://www.w3.org/1999/xlink" x="0px" y="0px"
	 width="410px" height="55px" viewBox="0 0 410 55" enable-background="new 0 0 410 55" xml:space="preserve">
<g>
	<g>
		<path d="M145.735,15.181h-27.563c-0.958,0-1.245,0.866-1.245,1.63v4.687c0,0.569,0.476,0.959,1.245,0.959h4.973
			c0.964,0,1.533,0,1.533,0.764v5.65c-0.374,0.478-0.329,0.913-1.195,0.913l-20.621,0.046c-0.575,0-1.051-0.194-1.154-1.153v-5.451
			c0-0.764,0.575-0.764,1.534-0.764h4.984c0.764,0,1.245-0.384,1.245-0.958v-4.687c0-0.764-0.287-1.63-1.245-1.63h-27.57
			c-0.953,0-1.245,0.867-1.245,1.63v4.687c0,0.569,0.481,0.958,1.245,0.958h4.979c0.954,0,1.528,0,1.528,0.764v20.671
			c0,0.574,0,1.148-0.954,1.148H81.42c-0.769,0-1.153,0.385-1.153,1.153v4.882c0,0.569-0.288,1.153,0.866,1.153h26.599
			c1.158,0,0.866-0.579,0.866-1.153v-4.882c0-0.765-0.379-1.153-1.154-1.153h-4.783c-0.964,0-0.964-0.568-0.964-1.148v-4.973
			c0.195-0.871,0.292-1.631,1.154-1.631h20.672c0.861,0,1.148,0.575,1.148,1.436v5.168c0,0.574,0,1.148-0.958,1.148h-4.789
			c-0.759,0-1.148,0.385-1.148,1.153v4.882c0,0.569-0.288,1.153,0.861,1.153h26.609c1.148,0,0.861-0.579,0.861-1.153v-4.882
			c0-0.765-0.385-1.153-1.148-1.153h-4.788c-0.959,0-0.959-0.568-0.959-1.148V23.225c0-0.764,0.575-0.764,1.533-0.764h4.979
			c0.77,0,1.241-0.384,1.241-0.958v-4.687C146.974,16.047,146.693,15.181,145.735,15.181L145.735,15.181z"/>
		<path d="M177.896,13.843c-9.761,0-28.906,3.64-28.906,20.099c0,14.359,14.356,18.375,30.629,18.375
			c16.268,0,28.522-4.594,28.522-18.561C208.141,19.775,193.784,13.843,177.896,13.843z M178.855,46.769
			c-10.531,0-13.397-8.618-13.397-13.592c0-7.845,6.511-12.639,12.633-12.444c9.946,0.313,13.396,7.655,13.396,11.674
			C191.488,36.429,189.385,46.769,178.855,46.769z"/>
		<path d="M239.252,15.181h-27.851c-0.964,0-1.246,0.866-1.246,1.63v4.687c0,0.569,0.481,0.959,1.246,0.959h4.979
			c0.953,0,1.532,0,1.532,0.764v20.672c0,0.574,0,1.147-0.96,1.147h-4.781c-0.766,0-1.154,0.386-1.154,1.153v4.881
			c0,0.568-0.287,1.154,0.861,1.154h21.057c1.147,0,0.861-0.579,0.861-1.154v-4.881c0-0.764-0.386-1.153-1.154-1.153h-4.782
			c-0.959,0-0.959-0.569-0.959-1.147V26.563c0-0.667,0.478-0.759,0.769-0.472c0,0,19.141,25.173,19.715,25.651
			c0.194,0.098,0.959,0.481,1.338,0.481h20.481c0.481,0,0.58-0.194,0.58-0.58V23.22c0-0.764,0.567-0.764,1.526-0.764h4.975
			c0.77,0,1.245-0.384,1.245-0.959V16.81c0-0.764-0.287-1.63-1.245-1.63h-21.059c-0.957,0-1.244,0.866-1.244,1.63v4.687
			c0,0.569,0.48,0.959,1.244,0.959h4.406c0.953,0,1.531,0,1.531,0.764v18.664c0,0.481-0.292,0.578-0.671,0.297
			c0,0-19.815-26.133-20.2-26.425C240.211,15.469,239.825,15.181,239.252,15.181"/>
		<path d="M323.002,15.181h-40.586c-0.959,0-1.24,0.866-1.24,1.63v4.687c0,0.569,0.477,0.959,1.24,0.959h4.979
			c0.96,0,1.537,0,1.537,0.764v20.672c0,0.574,0,1.147-0.957,1.147h-4.789c-0.764,0-1.148,0.386-1.148,1.153v4.881
			c0,0.568-0.287,1.154,0.861,1.154h36.944c4.983-0.289,21.354-3.17,20.965-18.857C340.423,18.052,326.063,15.181,323.002,15.181z
			 M315.438,44.948l-11.003,0.098c-0.959,0-0.959-0.568-0.959-1.148V23.225c0-0.764,0.574-0.764,1.533-0.764h10.91
			c1.533,0,9.957,1.533,9.957,10.341C325.873,41.597,320.417,44.948,315.438,44.948z"/>
		<path d="M407.997,51.075v-4.881c0-0.764-0.38-1.153-1.147-1.153h-5.075c-0.959,0-1.816-0.569-1.816-1.147L384.26,15.95
			c-0.29-0.464-0.796-0.753-1.344-0.769h-29.097c-0.964,0-1.245,0.866-1.245,1.63v4.687c0,0.569,0.241,0.959,0.999,0.959h6.081
			c0.959,0,1.82,0,1.533,0.764l-11.772,20.959c-0.286,0.573-0.384,0.86-1.338,0.86h-5.362c-0.77,0-1.147,0.386-1.147,1.153v4.881
			c0,0.568-0.292,1.154,0.86,1.154h22.017c1.147,0,0.86-0.579,0.86-1.154v-4.881c0-0.764-0.385-1.153-1.152-1.153h-5.122
			c-0.646,0-0.882-0.267-0.569-0.81l2.63-4.163c0.099-0.386,0.482-0.482,0.867-0.482h18.374c0.528,0,0.575,0.194,0.861,0.765
			c0.189,0.385,1.821,3.974,1.821,3.974c0.188,0.569,0.092,0.712-0.673,0.712h-4.594c-0.769,0-1.154,0.386-1.154,1.154v4.881
			c0,0.568-0.285,1.154,0.866,1.154h29.67C408.284,52.224,407.997,51.644,407.997,51.075z M375.502,31.978h-8.952
			c-0.379-0.047-0.409-0.318-0.285-0.482c0.143-0.186,4.501-7.942,4.501-7.942c0.287-0.43,0.478-0.384,0.718,0l4.353,7.994
			C375.887,31.736,375.887,31.978,375.502,31.978z"/>
	</g>
	<g>
		<path d="M68.014,12.695C66.198,13.3,7.043,34.9,7.043,34.9c-2.63,0.952-1.913,3.353-0.861,4.214
			C6.951,39.873,19.2,52.315,19.2,52.315h-4.594L3.5,40.259c-0.954-0.953-1.528-1.529-1.528-4.021c0-2.48,2.107-3.829,4.209-4.788
			C8.284,30.49,75.053,2.733,75.053,2.733c0.425-0.195,0.569-0.052,0.425,0.384c0,0-2.169,5.481-2.44,6.122
			C72.418,10.73,70.695,11.833,68.014,12.695"/>
		<path d="M22.804,35.647c-7.86,2.277-13.828,3.887-13.828,3.887s-1.743-1.573-2.123-2.051c-0.385-0.477-0.046-0.963,0.626-1.252
			c2.164-0.818,62.713-21.184,62.713-21.184c0.441-0.164,0.574-0.016,0.405,0.404c0,0-2.312,4.112-2.794,4.896
			c-0.866,1.405-2.851,2.497-5.188,3.025c-1.789,0.61-23.922,6.168-39.335,10.741C22.609,34.403,22.758,35.167,22.804,35.647
			 M27.592,40.576c-7.86,1.646-14.643,2.933-14.643,2.933s-2.149-2.025-2.553-2.518c-0.149-0.176-0.231-0.344,0.005-0.438
			c2.163-0.646,53.669-14.392,53.669-14.392c0.44-0.127,0.574,0.037,0.405,0.441c0,0-2.123,3.542-2.6,4.292
			c-0.867,1.332-3.235,2.179-5.188,2.604c-1.8,0.466-13.449,2.563-28.378,5.532C27.638,39.263,27.5,39.586,27.592,40.576
			 M37.067,45.267c-7.86,1.07-19.857,2.553-19.857,2.553s-2.394-2.342-2.844-2.829c-0.144-0.149-0.042-0.345,0.102-0.437
			c1.543-0.298,41.657-8.361,41.657-8.361c0.44-0.104,0.569,0.076,0.405,0.471c0,0-1.241,2.236-2.127,3.236
			c-1.292,1.471-3.23,1.938-5.179,2.225c-1.804,0.328-7.28,0.928-11.587,1.538C36.969,43.847,37.016,44.298,37.067,45.267
			 M39.205,46.384c0,0-20.052,2.586-20.339,2.586s-0.333,0.147-0.189,0.285l3.04,3.098h26.63c0.189,0,0.189-0.17,0.046-0.215
			l-8.619-5.697C39.635,46.338,39.4,46.338,39.205,46.384"/>
	</g>
</g>
</svg>
