<?xml version="1.0" encoding="utf-8"?>
<!-- Generator: Adobe Illustrator 15.1.0, SVG Export Plug-In . SVG Version: 6.00 Build 0)  -->
<!DOCTYPE svg PUBLIC "-//W3C//DTD SVG 1.1//EN" "http://www.w3.org/Graphics/SVG/1.1/DTD/svg11.dtd">
<svg version="1.1"
	 id="svg1528" xmlns:dc="http://purl.org/dc/elements/1.1/" xmlns:rdf="http://www.w3.org/1999/02/22-rdf-syntax-ns#" xmlns:cc="http://creativecommons.org/ns#" xmlns:svg="http://www.w3.org/2000/svg"
	 xmlns="http://www.w3.org/2000/svg" xmlns:xlink="http://www.w3.org/1999/xlink" x="0px" y="0px" width="285px" height="55px"
	 viewBox="0 0 285 55" enable-background="new 0 0 285 55" xml:space="preserve">
<g>
	<path id="パス_4" d="M122.881,22.678h10.078l3.435,11.3l3.55-11.3h8.427l3.255,11.3l3.751-11.3h9.53l-7.408,24.086h-9.443
		l-3.796-11.796l-3.256,11.796h-9.802L122.881,22.678z"/>
	<path id="パス_5" d="M190.625,38.347h8.861c-0.036,1.973,1.53,3.599,3.503,3.638c0.096,0,0.193-0.002,0.289-0.008
		c3.074,0,2.98-1.81,2.98-1.81s0.094-1.856-3.292-2.4c-3.798-0.566-11.886-1.261-11.886-7.999c0,0-0.727-8.25,11.701-8.25
		c8.811,0,11.791,3.871,11.791,8.392h-8.446c-0.208-1.557-1.554-2.706-3.121-2.668c-1.854,0-2.885,0.679-2.885,1.538
		c0,1.13,0.715,1.575,5.868,2.253c5.918,1.221,9.312,2.718,9.312,8.818c0,6.1-6.374,8.083-12.108,8.083
		C197.456,47.934,190.625,46.027,190.625,38.347z"/>
	<path id="パス_6" d="M225.978,30.933h-8.834c0,0-1.871-9.73,12.953-9.73c0,0,11.002-0.636,11.582,7.906
		c0.583,8.541-0.599,14.346,1.94,17.667h-9.455c-0.517-0.688-0.954-1.435-1.312-2.217c-2.121,2.058-5.002,3.14-7.955,2.982
		c-5.42,0-8.478-3.167-8.478-7.228c0-4.063,2.363-7.054,9.927-8.407c3.023-0.543,5.734-0.903,5.873-2.576s-2.166-1.987-2.759-1.987
		c-1.8-0.129-3.364,1.228-3.493,3.027C225.956,30.559,225.959,30.745,225.978,30.933L225.978,30.933z M226.935,37.695
		c-2.076,0.905-1.039,2.485-1.039,2.485c0.807,1.102,2.24,1.54,3.524,1.081c3.572-0.946,3.299-5.69,3.299-5.69
		S229.015,36.793,226.935,37.695L226.935,37.695z"/>
	<path id="長方形_422" d="M273.071,13.445h9.707v6.785h-9.707V13.445z"/>
	<path id="長方形_423" d="M273.071,22.672h9.707v24.092h-9.707V22.672z"/>
	<path id="パス_7" d="M254.127,46.771h-9.707V13.438h9.707v14.959l4.929-5.729h11.437l-8.456,8.988l9.875,15.107h-11.203
		l-5.333-8.117l-1.247,1.333L254.127,46.771L254.127,46.771z"/>
	<path id="パス_8" d="M65.396,13.44h10.121v10.154L85.642,13.44h12.657L85.376,26.724L99.259,46.77H86.085l-7.96-12.567
		l-2.618,2.704v9.867H65.391L65.396,13.44z"/>
	<path id="パス_9" d="M107.622,30.933h-8.823c0,0-1.874-9.73,12.949-9.73c0,0,11-0.636,11.588,7.906
		c0.588,8.541-0.604,14.346,1.938,17.667h-9.46c-0.513-0.691-0.952-1.435-1.309-2.217c-2.12,2.06-5.001,3.14-7.95,2.982
		c-5.424,0-8.477-3.167-8.477-7.228c0-4.063,2.357-7.054,9.918-8.407c3.029-0.543,5.741-0.903,5.879-2.576
		c0.136-1.673-2.167-1.987-2.757-1.987c-1.804-0.132-3.371,1.224-3.504,3.027C107.602,30.559,107.604,30.745,107.622,30.933z
		 M108.584,37.695c-2.077,0.905-1.039,2.485-1.039,2.485c0.806,1.102,2.239,1.542,3.524,1.081c3.572-0.946,3.301-5.69,3.301-5.69
		S110.662,36.793,108.584,37.695z"/>
	<path id="パス_10" d="M173.348,30.933h-8.833c0,0-1.873-9.73,12.948-9.73c0,0,11.001-0.636,11.583,7.906
		c0.585,8.541-0.598,14.346,1.941,17.667h-9.457c-0.514-0.688-0.952-1.433-1.31-2.217c-2.119,2.06-5.001,3.14-7.951,2.982
		c-5.42,0-8.477-3.167-8.477-7.228c0-4.063,2.358-7.054,9.922-8.407c3.027-0.543,5.742-0.903,5.872-2.576
		c0.131-1.673-2.166-1.987-2.754-1.987c-1.805-0.127-3.367,1.233-3.493,3.037C173.328,30.563,173.33,30.749,173.348,30.933z
		 M174.31,37.695c-2.075,0.905-1.037,2.485-1.037,2.485c0.807,1.102,2.24,1.54,3.524,1.081c3.572-0.946,3.303-5.69,3.303-5.69
		s-3.712,1.223-5.792,2.124H174.31z"/>
	<path id="パス_11" d="M37.207,29.817v-4.698h14.798C50.91,14.132,42.772,5.146,31.947,2.974v5.364
		c6.029,1.526,10.992,5.796,13.4,11.53H31.95v15.197h13.402c-2.41,5.745-7.373,10.032-13.41,11.585v5.381
		c10.869-2.147,19.032-11.189,20.061-22.219L37.207,29.817z"/>
	<path id="パス_12" d="M29.745,2.64c-0.873-0.092-1.75-0.138-2.628-0.14c-0.88-0.002-1.758,0.043-2.631,0.138v49.721
		c0.874,0.096,1.751,0.141,2.631,0.141c0.878-0.003,1.755-0.049,2.628-0.141V2.64z"/>
	<path id="パス_13" d="M8.853,35.065h13.436V19.862H8.894c2.423-5.72,7.375-9.984,13.395-11.529V2.959
		C11.436,5.1,3.277,14.115,2.229,25.127h14.805v4.695H2.222c1.066,11.015,9.215,20.035,20.065,22.213V46.67
		C16.229,45.139,11.249,40.836,8.853,35.065z"/>
</g>
</svg>
