<?xml version="1.0" encoding="utf-8"?>
<!-- Generator: Adobe Illustrator 15.1.0, SVG Export Plug-In . SVG Version: 6.00 Build 0)  -->
<!DOCTYPE svg PUBLIC "-//W3C//DTD SVG 1.1//EN" "http://www.w3.org/Graphics/SVG/1.1/DTD/svg11.dtd">
<svg version="1.1" id="レイヤー_1" xmlns="http://www.w3.org/2000/svg" xmlns:xlink="http://www.w3.org/1999/xlink" x="0px"
	 y="0px" width="265px" height="55px" viewBox="0 0 265 55" enable-background="new 0 0 265 55" xml:space="preserve">
<g>
	<polygon points="155.275,34.527 171.645,18.87 171.645,18.158 171.645,13.176 137.836,13.176 137.836,20.293 154.385,20.293 
		137.836,35.951 137.836,37.375 137.836,41.646 171.645,41.646 171.645,34.527 	"/>
	<rect x="249.936" y="13.176" width="10.678" height="28.471"/>
	<polygon points="247.443,13.176 233.031,13.176 221.467,23.318 221.467,13.176 210.789,13.176 210.789,41.646 221.467,41.646 
		221.467,30.435 232.676,41.646 247.088,41.646 231.074,26.699 	"/>
	<path d="M196.555,13.176v17.26c0,2.49-0.711,5.517-6.404,5.517s-6.051-3.025-6.051-5.517v-17.26h-10.676v18.149
		c0,8.541,2.313,12.1,16.369,12.1s17.439-3.559,17.439-12.1V13.176H196.555z"/>
	<path d="M125.381,13.176v17.26c0,2.49-0.712,5.517-6.406,5.517c-5.693,0-6.05-3.025-6.05-5.517v-17.26H102.25v18.149
		c0,8.541,3.38,12.1,17.437,12.1c14.058,0,16.371-3.559,16.371-12.1V13.176H125.381z"/>
	<path d="M78.229,32.748c0.533,1.958,1.778,3.203,5.338,3.203c2.668,0,3.914-0.533,3.914-1.424c0-2.313-1.602-2.313-12.455-3.735
		c-10.676-1.424-10.319-8.187-10.319-9.253c0-9.075,12.812-9.075,17.259-9.075c8.008,0,16.727,2.491,16.727,9.431H86.237
		c-0.356-1.424-2.137-2.848-5.338-2.848c-2.67,0-4.092,0.534-4.092,1.602c0,1.959,0.89,1.781,11.388,3.382
		c10.676,1.603,11.743,6.762,11.743,9.607c0,9.433-13.166,8.897-17.615,8.897c-10.676,0-17.438-2.313-17.793-9.964h13.701v0.177
		H78.229z"/>
	<path d="M53.317,19.76c-3.024,2.49-12.1,6.049-17.615,2.49l-12.811-8.896L20.754,14.6l32.563,22.598
		C45.131,40.4,35.702,46.805,28.94,52.5L4.742,35.239c3.559-2.668,11.922-5.871,17.438-2.313l12.988,9.075l1.78-1.246L4.387,17.98
		C11.326,15.489,23.959,7.66,28.764,2.5L53.317,19.76z"/>
</g>
</svg>
